<svg width="33" height="32" viewBox="0 0 33 32" fill="none" xmlns="http://www.w3.org/2000/svg">
<path fill-rule="evenodd" clip-rule="evenodd" d="M0 1.60818C9.67632 3.67973 13.6559 5.69676 21.1244 11.7206C24.7496 7.76831 26.7666 2.86201 26.276 0C28.1295 6.92334 24.9949 11.9659 21.4514 17.0085C14.6099 7.68654 9.78535 5.06985 0 1.60818Z" fill="#00B49C"/>
<path fill-rule="evenodd" clip-rule="evenodd" d="M4.63379 4.5791C10.9847 6.32356 16.4634 11.5842 21.397 18.3167C23.9319 15.6455 25.8399 12.1839 26.7394 9.21283C26.1397 15.5093 23.8229 20.9062 20.0341 25.2946C19.2982 18.4258 15.7275 11.4207 4.63379 4.5791Z" fill="#F58220"/>
<path fill-rule="evenodd" clip-rule="evenodd" d="M20.579 4.66113C21.9419 4.66113 23.0594 5.77868 23.0594 7.14154C23.0594 8.5044 21.9419 9.62195 20.579 9.62195C19.2162 9.62195 18.0986 8.5044 18.0986 7.14154C18.0986 5.77868 19.2162 4.66113 20.579 4.66113Z" fill="#F58220"/>
<path fill-rule="evenodd" clip-rule="evenodd" d="M27.4205 9.26758C32.1088 16.518 28.211 24.3408 21.4512 26.5487C27.3387 23.7684 29.6283 18.5623 26.8481 12.4022L27.4205 9.26758Z" fill="#F58220"/>
<path fill-rule="evenodd" clip-rule="evenodd" d="M30.555 14.8006C32.3267 24.695 21.8599 31.3185 14.2279 28.0749C6.59587 24.8313 4.49706 16.0545 8.36759 8.91309C13.9008 13.1652 17.7441 19.2708 19.4068 26.494C14.5005 27.0664 10.6299 24.0136 7.79519 18.6984C8.74919 22.6507 12.2381 27.8569 19.9792 27.5843C27.7475 27.339 31.2637 20.7427 30.555 14.8006Z" fill="#00B49C"/>
</svg>
